<?xml version="1.0" encoding="UTF-8" standalone="no"?>
<svg
   xmlns:ooo="http://xml.openoffice.org/svg/export"
   xmlns:osb="http://www.openswatchbook.org/uri/2009/osb"
   xmlns:dc="http://purl.org/dc/elements/1.1/"
   xmlns:cc="http://creativecommons.org/ns#"
   xmlns:rdf="http://www.w3.org/1999/02/22-rdf-syntax-ns#"
   xmlns:svg="http://www.w3.org/2000/svg"
   xmlns="http://www.w3.org/2000/svg"
   xmlns:sodipodi="http://sodipodi.sourceforge.net/DTD/sodipodi-0.dtd"
   xmlns:inkscape="http://www.inkscape.org/namespaces/inkscape"
   version="1.2"
   width="31.75mm"
   height="31.75mm"
   viewBox="0 0 3175 3175"
   preserveAspectRatio="xMidYMid"
   fill-rule="evenodd"
   clip-path="url(#presentation_clip_path)"
   stroke-width="28.222"
   stroke-linejoin="round"
   xml:space="preserve"
   id="svg2"
   inkscape:version="0.48.2 r9819"
   sodipodi:docname="cart.svg"><metadata
   id="metadata88"><rdf:RDF><cc:Work
       rdf:about=""><dc:format>image/svg+xml</dc:format><dc:type
         rdf:resource="http://purl.org/dc/dcmitype/StillImage" /><dc:title /></cc:Work></rdf:RDF></metadata><sodipodi:namedview
   pagecolor="#ffffff"
   bordercolor="#646464"
   borderopacity="1"
   objecttolerance="10"
   gridtolerance="10"
   guidetolerance="10"
   inkscape:pageopacity="0"
   inkscape:pageshadow="2"
   inkscape:window-width="1144"
   inkscape:window-height="789"
   id="namedview86"
   showgrid="false"
   inkscape:zoom="4.5248773"
   inkscape:cx="49.213333"
   inkscape:cy="45.908155"
   inkscape:window-x="216"
   inkscape:window-y="1"
   inkscape:window-maximized="0"
   inkscape:current-layer="svg2"
   showborder="true"
   borderlayer="true"
   inkscape:showpageshadow="true" />
 <defs
   class="ClipPathGroup"
   id="defs4"><linearGradient
   id="linearGradient3829"
   osb:paint="solid"><stop
     style="stop-color:#000000;stop-opacity:1;"
     offset="0"
     id="stop3831" /></linearGradient>
  <clipPath
   id="presentation_clip_path"
   clipPathUnits="userSpaceOnUse">
   <rect
   x="0"
   y="0"
   width="3175"
   height="3175"
   id="rect7" />
  </clipPath>
 
  
 
   
  
    
   
     
    
      
      
      
      
     <filter
   inkscape:collect="always"
   id="filter3870"
   x="-0.11699346"
   width="1.2339869"
   y="-0.15142273"
   height="1.3028455"><feGaussianBlur
     inkscape:collect="always"
     stdDeviation="26.236967"
     id="feGaussianBlur3872" /></filter><pattern
   id="pattern5245"
   patternTransform="matrix(0.8,0,0,0.8,104.78995,232.69564)"
   height="150.26305"
   width="156.84161"
   patternUnits="userSpaceOnUse"><path
     style="opacity:0;fill:#000000;fill-opacity:1;fill-rule:nonzero;stroke:none"
     d="M 50.440237,149.8231 C 34.737767,147.46477 26.036667,143.40317 16.794417,134.11753 9.2909265,126.57882 4.5883465,118.7978 2.0908165,109.78852 c -3.71594,-13.404369 -2.66085,-21.553989 4.63508,-35.801879 5.9425805,-11.60502 10.3104505,-18.22706 20.1815205,-30.59684 19.17366,-24.02718 35.91206,-35.3472697 61.14289,-41.3505997 16.688853,-3.97089 32.802993,-2.13710002 47.929543,5.45439 9.92112,4.9790597 15.64141,11.5142997 18.94991,21.6496097 4.60403,14.10404 0.59758,41.2888 -8.8504,60.05228 -11.26731,22.376649 -32.17511,45.288239 -48.784343,53.459809 -10.49638,5.16411 -35.11748,8.93063 -46.85478,7.16781 z"
     id="path5237"
     inkscape:connector-curvature="0" /></pattern><linearGradient
   osb:paint="solid"
   id="linearGradient5229"><stop
     id="stop5231"
     offset="0"
     style="stop-color:#000000;stop-opacity:1;" /></linearGradient>
       
      
        
        
        
        
        
       </defs>
 <defs
   class="TextShapeIndex"
   id="defs9">
  <g
   ooo:slide="id1"
   ooo:id-list="id3 id4 id5 id6"
   id="g11" />
 </defs>
 <defs
   class="EmbeddedBulletChars"
   id="defs13">
  <g
   id="bullet-char-template(57356)"
   transform="scale(0.00048828125,-0.00048828125)">
   <path
   d="M 580,1141 L 1163,571 580,0 -4,571 580,1141 Z"
   id="path16" />
  </g>
  <g
   id="bullet-char-template(57354)"
   transform="scale(0.00048828125,-0.00048828125)">
   <path
   d="M 8,1128 L 1137,1128 1137,0 8,0 8,1128 Z"
   id="path19" />
  </g>
  <g
   id="bullet-char-template(10146)"
   transform="scale(0.00048828125,-0.00048828125)">
   <path
   d="M 174,0 L 602,739 174,1481 1456,739 174,0 Z M 1358,739 L 309,1346 659,739 1358,739 Z"
   id="path22" />
  </g>
  <g
   id="bullet-char-template(10132)"
   transform="scale(0.00048828125,-0.00048828125)">
   <path
   d="M 2015,739 L 1276,0 717,0 1260,543 174,543 174,936 1260,936 717,1481 1274,1481 2015,739 Z"
   id="path25" />
  </g>
  <g
   id="bullet-char-template(10007)"
   transform="scale(0.00048828125,-0.00048828125)">
   <path
   d="M 0,-2 C -7,14 -16,27 -25,37 L 356,567 C 262,823 215,952 215,954 215,979 228,992 255,992 264,992 276,990 289,987 310,991 331,999 354,1012 L 381,999 492,748 772,1049 836,1024 860,1049 C 881,1039 901,1025 922,1006 886,937 835,863 770,784 769,783 710,716 594,584 L 774,223 C 774,196 753,168 711,139 L 727,119 C 717,90 699,76 672,76 641,76 570,178 457,381 L 164,-76 C 142,-110 111,-127 72,-127 30,-127 9,-110 8,-76 1,-67 -2,-52 -2,-32 -2,-23 -1,-13 0,-2 Z"
   id="path28" />
  </g>
  <g
   id="bullet-char-template(10004)"
   transform="scale(0.00048828125,-0.00048828125)">
   <path
   d="M 285,-33 C 182,-33 111,30 74,156 52,228 41,333 41,471 41,549 55,616 82,672 116,743 169,778 240,778 293,778 328,747 346,684 L 369,508 C 377,444 397,411 428,410 L 1163,1116 C 1174,1127 1196,1133 1229,1133 1271,1133 1292,1118 1292,1087 L 1292,965 C 1292,929 1282,901 1262,881 L 442,47 C 390,-6 338,-33 285,-33 Z"
   id="path31" />
  </g>
  <g
   id="bullet-char-template(9679)"
   transform="scale(0.00048828125,-0.00048828125)">
   <path
   d="M 813,0 C 632,0 489,54 383,161 276,268 223,411 223,592 223,773 276,916 383,1023 489,1130 632,1184 813,1184 992,1184 1136,1130 1245,1023 1353,916 1407,772 1407,592 1407,412 1353,268 1245,161 1136,54 992,0 813,0 Z"
   id="path34" />
  </g>
  <g
   id="bullet-char-template(8226)"
   transform="scale(0.00048828125,-0.00048828125)">
   <path
   d="M 346,457 C 273,457 209,483 155,535 101,586 74,649 74,723 74,796 101,859 155,911 209,963 273,989 346,989 419,989 480,963 531,910 582,859 608,796 608,723 608,648 583,586 532,535 482,483 420,457 346,457 Z"
   id="path37" />
  </g>
  <g
   id="bullet-char-template(8211)"
   transform="scale(0.00048828125,-0.00048828125)">
   <path
   d="M -4,459 L 1135,459 1135,606 -4,606 -4,459 Z"
   id="path40" />
  </g>
 </defs>
 <defs
   class="TextEmbeddedBitmaps"
   id="defs42" />
 
 
<g
   id="g3250"><g
     id="g44">
  <g
   class="Master_Slide"
   id="id2">
   <g
   class="Background"
   id="bg-id2" />
   <g
   class="BackgroundObjects"
   id="bo-id2" />
  </g>
 </g><path
     d="m 1586.5001,20.5 c 888,0 1567,678 1567,1566 0,888 -679,1567 -1567,1567 -888.00014,0 -1566.000185,-679 -1566.000185,-1567 0,-888 678.000045,-1566 1566.000185,-1566 z m 0,156 c 799,0 1410,611 1410,1410 0,799 -611,1410 -1410,1410 -799.00006,0 -1410.00018,-611 -1410.00018,-1410 0,-799 611.00012,-1410 1410.00018,-1410 z M 20.499915,20.5 l 0,0 z m 3134.000185,3134 0,0 z"
     id="path76"
     inkscape:connector-curvature="0"
     style="fill:#000000;stroke:none" /><path
     d="m 415.61109,20.5 0,0 z"
     id="path82"
     inkscape:connector-curvature="0"
     style="fill:none;stroke:#000000" /><path
     d="m 3549.6111,3154.5 0,0 z"
     id="path84"
     inkscape:connector-curvature="0"
     style="fill:none;stroke:#000000" /><path
     d="m 1570.6315,1038.0766 c 35.8235,-7.774 69.9902,-9.6116 106.7713,-7.9761 27.3448,1.9694 55.987,-0.3356 81.5322,11.3975 15.9064,7.4285 34.1925,16.5885 38.9835,35.0856 3.9047,18.7702 0.4576,34.3428 -4.557,56.6303 -4.6809,17.871 -8.3622,34.7707 -14.3822,51.6309 -19.3507,54.1129 -30.8194,89.8569 -48.1324,132.3078 -18.9935,41.3641 -30.5203,72.4196 -58.7285,98.0094 -12.3924,11.2422 -29.201,17.1544 -45.3595,21.4975 -31.5807,8.4882 -59.9605,8.9729 -97.7704,8.0915 -28.9884,-0.2575 -65.8782,1.0502 -94.8785,0.52 -44.6516,-3.0102 -91.2888,-0.5078 -133.568,-15.374 -11.6255,-4.0878 -24.1607,-9.638 -31.2907,-19.6892 -6.4734,-9.1255 -8.8951,-21.6215 -7.4828,-32.7203 2.1787,-17.1213 13.2645,-30.948 23.8165,-45.9754 0.1725,-2.3116 26.1728,-37.2019 26.3469,-39.4746 23.1765,-30.0746 24.1622,-35.4872 51.378,-65.8468 25.7097,-29.7533 37.4998,-44.3339 63.51,-72.3758 19.0977,-19.6572 43.8358,-49.5085 65.7456,-66.4767 22.7094,-18.331 47.0031,-40.6392 78.066,-49.2616 z"
     id="path16-2"
     inkscape:connector-curvature="0"
     style="fill:none;stroke:none;stroke-width:0;stroke-miterlimit:4;stroke-opacity:1;stroke-dasharray:none;fill-opacity:0;filter:url(#filter3870)"
     sodipodi:nodetypes="cccccccaaccaaacccccc" /><path
     inkscape:connector-curvature="0"
     d="m 287.17542,839.81337 2600.64918,0 0,1495.37323 -2600.64918,0 0,-1495.37323 z"
     id="path4-2"
     style="fill:none" /><g
     transform="matrix(24.526556,0,0,24.526556,534.82337,513.07818)"
     id="g6017">
	<circle
   d="m 44.037,78.012001 c 0,3.51474 -2.84926,6.364 -6.364,6.364 -3.51474,0 -6.364,-2.84926 -6.364,-6.364 0,-3.51474 2.84926,-6.364 6.364,-6.364 3.51474,0 6.364,2.84926 6.364,6.364 z"
   sodipodi:ry="6.3639998"
   sodipodi:rx="6.3639998"
   sodipodi:cy="78.012001"
   sodipodi:cx="37.673"
   cx="37.673"
   cy="78.012001"
   r="6.3639998"
   id="circle6019" />
	<circle
   d="m 79.990999,78.012001 c 0,3.51474 -2.84926,6.364 -6.364,6.364 -3.51474,0 -6.364,-2.84926 -6.364,-6.364 0,-3.51474 2.84926,-6.364 6.364,-6.364 3.51474,0 6.364,2.84926 6.364,6.364 z"
   sodipodi:ry="6.3639998"
   sodipodi:rx="6.3639998"
   sodipodi:cy="78.012001"
   sodipodi:cx="73.626999"
   cx="73.626999"
   cy="78.012001"
   r="6.3639998"
   id="circle6021" />
	<path
   inkscape:connector-curvature="0"
   d="M 24.758,18.271 21.76,7.149 H 18.427 15.74 8.486 c -1.885,0 -3.412,1.618 -3.412,3.614 0,1.997 1.527,3.615 3.412,3.615 h 7.735 L 31.31,70.337 31.34,70.33 H 79.99 V 63.101 H 36.845 L 35.143,56.789 H 79.99 V 56.677 L 84.908,22.448 24.758,18.271 z M 76.483,37.167 H 63.467 l 1.062,-9.93 13.249,0.909 -1.295,9.021 z m -31.557,0 L 42.351,25.716 61.071,27 59.982,37.167 H 44.926 z m 14.793,2.449 -1.17,10.934 H 47.937 L 45.479,39.616 h 14.24 z M 38.745,25.467 41.376,37.166 H 29.853 l -3.381,-12.54 12.273,0.841 z M 33.461,50.55 30.513,39.616 H 41.926 L 44.385,50.55 H 33.461 z m 28.573,0 1.171,-10.934 H 76.133 L 74.565,50.55 H 62.034 z"
   id="path6023" />
</g></g></svg>