<?xml version="1.0" encoding="UTF-8" standalone="no"?>
<svg
   xmlns:ooo="http://xml.openoffice.org/svg/export"
   xmlns:osb="http://www.openswatchbook.org/uri/2009/osb"
   xmlns:dc="http://purl.org/dc/elements/1.1/"
   xmlns:cc="http://creativecommons.org/ns#"
   xmlns:rdf="http://www.w3.org/1999/02/22-rdf-syntax-ns#"
   xmlns:svg="http://www.w3.org/2000/svg"
   xmlns="http://www.w3.org/2000/svg"
   xmlns:sodipodi="http://sodipodi.sourceforge.net/DTD/sodipodi-0.dtd"
   xmlns:inkscape="http://www.inkscape.org/namespaces/inkscape"
   version="1.2"
   width="31.75mm"
   height="31.75mm"
   viewBox="0 0 3175 3175"
   preserveAspectRatio="xMidYMid"
   fill-rule="evenodd"
   clip-path="url(#presentation_clip_path)"
   stroke-width="28.222"
   stroke-linejoin="round"
   xml:space="preserve"
   id="svg2"
   inkscape:version="0.48.2 r9819"
   sodipodi:docname="group.svg"><metadata
   id="metadata88"><rdf:RDF><cc:Work
       rdf:about=""><dc:format>image/svg+xml</dc:format><dc:type
         rdf:resource="http://purl.org/dc/dcmitype/StillImage" /><dc:title /></cc:Work></rdf:RDF></metadata><sodipodi:namedview
   pagecolor="#ffffff"
   bordercolor="#646464"
   borderopacity="1"
   objecttolerance="10"
   gridtolerance="10"
   guidetolerance="10"
   inkscape:pageopacity="0"
   inkscape:pageshadow="2"
   inkscape:window-width="1144"
   inkscape:window-height="831"
   id="namedview86"
   showgrid="false"
   inkscape:zoom="5.096065"
   inkscape:cx="56.25"
   inkscape:cy="68.358996"
   inkscape:window-x="216"
   inkscape:window-y="1"
   inkscape:window-maximized="0"
   inkscape:current-layer="svg2"
   showborder="true"
   borderlayer="true"
   inkscape:showpageshadow="true" />
 <defs
   class="ClipPathGroup"
   id="defs4"><linearGradient
   id="linearGradient3829"
   osb:paint="solid"><stop
     style="stop-color:#000000;stop-opacity:1;"
     offset="0"
     id="stop3831" /></linearGradient>
  <clipPath
   id="presentation_clip_path"
   clipPathUnits="userSpaceOnUse">
   <rect
   x="0"
   y="0"
   width="3175"
   height="3175"
   id="rect7" />
  </clipPath>
 
  
 
   
  
    
   
     
    
      
      
      
      
     <filter
   inkscape:collect="always"
   id="filter3870"
   x="-0.11699346"
   width="1.2339869"
   y="-0.15142273"
   height="1.3028455"><feGaussianBlur
     inkscape:collect="always"
     stdDeviation="26.236967"
     id="feGaussianBlur3872" /></filter><pattern
   id="pattern5245"
   patternTransform="matrix(0.8,0,0,0.8,104.78995,232.69564)"
   height="150.26305"
   width="156.84161"
   patternUnits="userSpaceOnUse"><path
     style="opacity:0;fill:#000000;fill-opacity:1;fill-rule:nonzero;stroke:none"
     d="M 50.440237,149.8231 C 34.737767,147.46477 26.036667,143.40317 16.794417,134.11753 9.2909265,126.57882 4.5883465,118.7978 2.0908165,109.78852 c -3.71594,-13.404369 -2.66085,-21.553989 4.63508,-35.801879 5.9425805,-11.60502 10.3104505,-18.22706 20.1815205,-30.59684 19.17366,-24.02718 35.91206,-35.3472697 61.14289,-41.3505997 16.688853,-3.97089 32.802993,-2.13710002 47.929543,5.45439 9.92112,4.9790597 15.64141,11.5142997 18.94991,21.6496097 4.60403,14.10404 0.59758,41.2888 -8.8504,60.05228 -11.26731,22.376649 -32.17511,45.288239 -48.784343,53.459809 -10.49638,5.16411 -35.11748,8.93063 -46.85478,7.16781 z"
     id="path5237"
     inkscape:connector-curvature="0" /></pattern><linearGradient
   osb:paint="solid"
   id="linearGradient5229"><stop
     id="stop5231"
     offset="0"
     style="stop-color:#000000;stop-opacity:1;" /></linearGradient>
       
      
        
        
        
        
        
       
	
	
	
	
	
</defs>
 <defs
   class="TextShapeIndex"
   id="defs9">
  <g
   ooo:slide="id1"
   ooo:id-list="id3 id4 id5 id6"
   id="g11" />
 </defs>
 <defs
   class="EmbeddedBulletChars"
   id="defs13">
  <g
   id="bullet-char-template(57356)"
   transform="scale(0.00048828125,-0.00048828125)">
   <path
   d="M 580,1141 L 1163,571 580,0 -4,571 580,1141 Z"
   id="path16" />
  </g>
  <g
   id="bullet-char-template(57354)"
   transform="scale(0.00048828125,-0.00048828125)">
   <path
   d="M 8,1128 L 1137,1128 1137,0 8,0 8,1128 Z"
   id="path19" />
  </g>
  <g
   id="bullet-char-template(10146)"
   transform="scale(0.00048828125,-0.00048828125)">
   <path
   d="M 174,0 L 602,739 174,1481 1456,739 174,0 Z M 1358,739 L 309,1346 659,739 1358,739 Z"
   id="path22" />
  </g>
  <g
   id="bullet-char-template(10132)"
   transform="scale(0.00048828125,-0.00048828125)">
   <path
   d="M 2015,739 L 1276,0 717,0 1260,543 174,543 174,936 1260,936 717,1481 1274,1481 2015,739 Z"
   id="path25" />
  </g>
  <g
   id="bullet-char-template(10007)"
   transform="scale(0.00048828125,-0.00048828125)">
   <path
   d="M 0,-2 C -7,14 -16,27 -25,37 L 356,567 C 262,823 215,952 215,954 215,979 228,992 255,992 264,992 276,990 289,987 310,991 331,999 354,1012 L 381,999 492,748 772,1049 836,1024 860,1049 C 881,1039 901,1025 922,1006 886,937 835,863 770,784 769,783 710,716 594,584 L 774,223 C 774,196 753,168 711,139 L 727,119 C 717,90 699,76 672,76 641,76 570,178 457,381 L 164,-76 C 142,-110 111,-127 72,-127 30,-127 9,-110 8,-76 1,-67 -2,-52 -2,-32 -2,-23 -1,-13 0,-2 Z"
   id="path28" />
  </g>
  <g
   id="bullet-char-template(10004)"
   transform="scale(0.00048828125,-0.00048828125)">
   <path
   d="M 285,-33 C 182,-33 111,30 74,156 52,228 41,333 41,471 41,549 55,616 82,672 116,743 169,778 240,778 293,778 328,747 346,684 L 369,508 C 377,444 397,411 428,410 L 1163,1116 C 1174,1127 1196,1133 1229,1133 1271,1133 1292,1118 1292,1087 L 1292,965 C 1292,929 1282,901 1262,881 L 442,47 C 390,-6 338,-33 285,-33 Z"
   id="path31" />
  </g>
  <g
   id="bullet-char-template(9679)"
   transform="scale(0.00048828125,-0.00048828125)">
   <path
   d="M 813,0 C 632,0 489,54 383,161 276,268 223,411 223,592 223,773 276,916 383,1023 489,1130 632,1184 813,1184 992,1184 1136,1130 1245,1023 1353,916 1407,772 1407,592 1407,412 1353,268 1245,161 1136,54 992,0 813,0 Z"
   id="path34" />
  </g>
  <g
   id="bullet-char-template(8226)"
   transform="scale(0.00048828125,-0.00048828125)">
   <path
   d="M 346,457 C 273,457 209,483 155,535 101,586 74,649 74,723 74,796 101,859 155,911 209,963 273,989 346,989 419,989 480,963 531,910 582,859 608,796 608,723 608,648 583,586 532,535 482,483 420,457 346,457 Z"
   id="path37" />
  </g>
  <g
   id="bullet-char-template(8211)"
   transform="scale(0.00048828125,-0.00048828125)">
   <path
   d="M -4,459 L 1135,459 1135,606 -4,606 -4,459 Z"
   id="path40" />
  </g>
 </defs>
 <defs
   class="TextEmbeddedBitmaps"
   id="defs42" />
 
 
<g
   id="g3955"><g
     id="g44">
  <g
   class="Master_Slide"
   id="id2">
   <g
   class="Background"
   id="bg-id2" />
   <g
   class="BackgroundObjects"
   id="bo-id2" />
  </g>
 </g><path
     d="m 1586.5,20.5 c 888,0 1567,678 1567,1566 0,888 -679,1567 -1567,1567 -888,0 -1566,-679 -1566,-1567 0,-888 678,-1566 1566,-1566 z m 0,156 c 799,0 1410,611 1410,1410 0,799 -611,1410 -1410,1410 -799,0 -1410,-611 -1410,-1410 0,-799 611,-1410 1410,-1410 z m -1566,-156 0,0 z m 3134,3134 0,0 z"
     id="path76"
     inkscape:connector-curvature="0"
     style="fill:#000000;stroke:none" /><path
     d="m 20.5,20.5 0,0 z"
     id="path82"
     inkscape:connector-curvature="0"
     style="fill:none;stroke:#000000" /><path
     d="m 3154.5,3154.5 0,0 z"
     id="path84"
     inkscape:connector-curvature="0"
     style="fill:none;stroke:#000000" /><path
     inkscape:connector-curvature="0"
     d="m 287.17542,839.81337 2600.64918,0 0,1495.37323 -2600.64918,0 0,-1495.37323 z"
     id="path4-2"
     style="fill:none" /><path
     id="path7434"
     d="m 2338.627,1408.2618 c -166.6631,0 -312.5986,108.9026 -392.8315,271.7149 -50.8112,-39.1989 -110.9783,-61.912 -175.4475,-61.912 -75.5699,0 -145.1833,31.1365 -200.838,83.482 -71.9298,-113.2347 -184.2018,-186.2475 -310.4626,-186.2475 -48.6452,0 -95.3048,10.9203 -138.3243,30.7454 -24.4279,-40.0413 -68.38,-66.8758 -118.74,-66.8758 -76.8936,0 -139.25688,62.273 -139.25688,139.1667 0,49.8184 26.38331,93.4697 65.79281,118.078 -13.41728,25.6012 -24.90921,52.7667 -34.29529,81.2859 -10.83009,7.19 -21.17885,15.4028 -30.89585,24.5181 -49.57775,-78.1872 -127.16332,-128.6073 -214.28539,-128.6073 -149.72601,0 -271.20353,148.5527 -271.20353,331.6414 0,61.0697 40.46242,110.5271 90.40118,110.5271 h 361.54454 c 3.64012,0 7.18998,-0.361 10.70976,-0.8423 3.12869,0.5415 6.37772,0.9025 9.68692,0.9025 h 147.04857 156.46476 367.2303 c 5.2947,0 10.4089,-0.5114 15.4931,-1.2033 4.6028,0.6919 9.3259,1.2033 14.0791,1.2033 h 439.7318 c 6.7688,0 13.4473,-0.8423 19.9153,-2.2863 7.5209,1.3537 15.102,2.2863 22.8936,2.2863 h 611.2383 c 84.4447,0 152.8848,-83.6023 152.8848,-186.8491 0,-309.5602 -205.4107,-560.728 -458.534,-560.728 z"
     inkscape:connector-curvature="0" /><path
     id="path7436"
     d="m 2338.627,1354.0211 c 154.7801,0 280.3189,-125.6291 280.3189,-280.3791 0,-154.74994 -125.5689,-280.25866 -280.3189,-280.25866 -154.75,0 -280.2587,125.53881 -280.2587,280.25866 -0.03,154.75 125.5087,280.3791 280.2587,280.3791 z"
     inkscape:connector-curvature="0" /><path
     id="path7438"
     d="m 1259.0474,1468.79 c 132.6084,0 240.1874,-107.5489 240.1874,-240.1874 0,-132.5483 -107.579,-240.1272 -240.1874,-240.1272 -132.5182,0 -240.067,107.5789 -240.067,240.1272 0,132.6385 107.5488,240.1874 240.067,240.1874 z"
     inkscape:connector-curvature="0" /><circle
     transform="matrix(30.083587,0,0,30.083587,83.290566,-250.84805)"
     id="circle7440"
     r="6.704"
     cy="54.120998"
     cx="56.078999"
     sodipodi:cx="56.078999"
     sodipodi:cy="54.120998"
     sodipodi:rx="6.704"
     sodipodi:ry="6.704"
     d="m 62.782999,54.120998 c 0,3.702517 -3.001483,6.704 -6.704,6.704 -3.702517,0 -6.704,-3.001483 -6.704,-6.704 0,-3.702517 3.001483,-6.704 6.704,-6.704 3.702517,0 6.704,3.001483 6.704,6.704 z" /><circle
     transform="matrix(30.083587,0,0,30.083587,83.290566,-250.84805)"
     id="circle7442"
     r="5.5120001"
     cy="58.723"
     cx="18.806"
     sodipodi:cx="18.806"
     sodipodi:cy="58.723"
     sodipodi:rx="5.5120001"
     sodipodi:ry="5.5120001"
     d="m 24.318,58.723 c 0,3.044193 -2.467807,5.512 -5.512,5.512 -3.044194,0 -5.512,-2.467807 -5.512,-5.512 0,-3.044194 2.467806,-5.512001 5.512,-5.512001 3.044193,0 5.512,2.467807 5.512,5.512001 z" /></g></svg>