<?xml version="1.0" encoding="UTF-8"?>

<svg version="1.2" baseProfile="tiny" width="31.75mm" height="31.75mm" viewBox="0 0 3175 3175" preserveAspectRatio="xMidYMid" fill-rule="evenodd" clip-path="url(#presentation_clip_path)" stroke-width="28.222" stroke-linejoin="round" xmlns="http://www.w3.org/2000/svg" xmlns:ooo="http://xml.openoffice.org/svg/export" xmlns:xlink="http://www.w3.org/1999/xlink" xml:space="preserve">
 <defs class="ClipPathGroup">
  <clipPath id="presentation_clip_path" clipPathUnits="userSpaceOnUse">
   <rect x="0" y="0" width="3175" height="3175"/>
  </clipPath>
 </defs>
 <defs class="TextShapeIndex">
  <g ooo:slide="id1" ooo:id-list="id3 id4 id5 id6 id7 id8 id9 id10 id11 id12 id13 id14 id15 id16 id17 id18 id19 id20 id21 id22 id23 id24 id25 id26 id27 id28 id29 id30 id31"/>
 </defs>
 <defs class="EmbeddedBulletChars">
  <g id="bullet-char-template(57356)" transform="scale(0.00048828125,-0.00048828125)">
   <path d="M 580,1141 L 1163,571 580,0 -4,571 580,1141 Z"/>
  </g>
  <g id="bullet-char-template(57354)" transform="scale(0.00048828125,-0.00048828125)">
   <path d="M 8,1128 L 1137,1128 1137,0 8,0 8,1128 Z"/>
  </g>
  <g id="bullet-char-template(10146)" transform="scale(0.00048828125,-0.00048828125)">
   <path d="M 174,0 L 602,739 174,1481 1456,739 174,0 Z M 1358,739 L 309,1346 659,739 1358,739 Z"/>
  </g>
  <g id="bullet-char-template(10132)" transform="scale(0.00048828125,-0.00048828125)">
   <path d="M 2015,739 L 1276,0 717,0 1260,543 174,543 174,936 1260,936 717,1481 1274,1481 2015,739 Z"/>
  </g>
  <g id="bullet-char-template(10007)" transform="scale(0.00048828125,-0.00048828125)">
   <path d="M 0,-2 C -7,14 -16,27 -25,37 L 356,567 C 262,823 215,952 215,954 215,979 228,992 255,992 264,992 276,990 289,987 310,991 331,999 354,1012 L 381,999 492,748 772,1049 836,1024 860,1049 C 881,1039 901,1025 922,1006 886,937 835,863 770,784 769,783 710,716 594,584 L 774,223 C 774,196 753,168 711,139 L 727,119 C 717,90 699,76 672,76 641,76 570,178 457,381 L 164,-76 C 142,-110 111,-127 72,-127 30,-127 9,-110 8,-76 1,-67 -2,-52 -2,-32 -2,-23 -1,-13 0,-2 Z"/>
  </g>
  <g id="bullet-char-template(10004)" transform="scale(0.00048828125,-0.00048828125)">
   <path d="M 285,-33 C 182,-33 111,30 74,156 52,228 41,333 41,471 41,549 55,616 82,672 116,743 169,778 240,778 293,778 328,747 346,684 L 369,508 C 377,444 397,411 428,410 L 1163,1116 C 1174,1127 1196,1133 1229,1133 1271,1133 1292,1118 1292,1087 L 1292,965 C 1292,929 1282,901 1262,881 L 442,47 C 390,-6 338,-33 285,-33 Z"/>
  </g>
  <g id="bullet-char-template(9679)" transform="scale(0.00048828125,-0.00048828125)">
   <path d="M 813,0 C 632,0 489,54 383,161 276,268 223,411 223,592 223,773 276,916 383,1023 489,1130 632,1184 813,1184 992,1184 1136,1130 1245,1023 1353,916 1407,772 1407,592 1407,412 1353,268 1245,161 1136,54 992,0 813,0 Z"/>
  </g>
  <g id="bullet-char-template(8226)" transform="scale(0.00048828125,-0.00048828125)">
   <path d="M 346,457 C 273,457 209,483 155,535 101,586 74,649 74,723 74,796 101,859 155,911 209,963 273,989 346,989 419,989 480,963 531,910 582,859 608,796 608,723 608,648 583,586 532,535 482,483 420,457 346,457 Z"/>
  </g>
  <g id="bullet-char-template(8211)" transform="scale(0.00048828125,-0.00048828125)">
   <path d="M -4,459 L 1135,459 1135,606 -4,606 -4,459 Z"/>
  </g>
 </defs>
 <defs class="TextEmbeddedBitmaps"/>
 <g>
  <g id="id2" class="Master_Slide">
   <g id="bg-id2" class="Background"/>
   <g id="bo-id2" class="BackgroundObjects"/>
  </g>
 </g>
 <g class="SlideGroup">
  <g>
   <g id="id1" class="Slide" clip-path="url(#presentation_clip_path)">
    <g class="Page">
     <g class="com.sun.star.drawing.ClosedBezierShape">
      <g id="id3"/>
     </g>
     <g class="com.sun.star.drawing.PolyPolygonShape">
      <g id="id4">
       <path fill="rgb(0,0,0)" stroke="none" d="M 1,-1 L 1,0 1,0 0,0 1,-1 Z"/>
      </g>
     </g>
     <g class="com.sun.star.drawing.PolyPolygonShape">
      <g id="id5">
       <path fill="rgb(0,0,0)" stroke="none" d="M 0,-1 L 1,-1 1,0 0,0 0,-1 Z"/>
      </g>
     </g>
     <g class="com.sun.star.drawing.PolyPolygonShape">
      <g id="id6">
       <path fill="rgb(0,0,0)" stroke="none" d="M 0,0 L 0,-1 1,0 0,0 Z M 1,0 L 0,-1 0,0 1,0 Z"/>
      </g>
     </g>
     <g class="com.sun.star.drawing.PolyPolygonShape">
      <g id="id7">
       <path fill="rgb(0,0,0)" stroke="none" d="M 2,0 L 1,0 1,0 1,0 0,0 0,0 1,0 1,-1 1,-1 2,0 Z"/>
      </g>
     </g>
     <g class="com.sun.star.drawing.PolyPolygonShape">
      <g id="id8">
       <path fill="rgb(0,0,0)" stroke="none" d="M 0,0 L 0,-1 0,-1 0,-1 0,-1 0,-1 0,-1 0,-1 0,-1 0,-1 0,-1 0,-1 0,-1 0,-1 0,-1 0,-1 0,-1 0,-1 0,-1 0,-1 0,0 Z"/>
      </g>
     </g>
     <g class="com.sun.star.drawing.PolyPolygonShape">
      <g id="id9">
       <path fill="rgb(0,0,0)" stroke="none" d="M 0,0 L 0,0 0,0 0,-1 0,-1 0,-1 0,0 0,0 1,-1 1,-1 1,-1 1,-1 1,-1 0,0 Z"/>
      </g>
     </g>
     <g class="com.sun.star.drawing.ClosedBezierShape">
      <g id="id10">
       <path fill="rgb(0,0,0)" stroke="none" d="M 1,0 C 0,0 0,0 0,0 0,-1 0,-1 0,-1 L 1,-1 1,0 Z"/>
      </g>
     </g>
     <g class="com.sun.star.drawing.PolyPolygonShape">
      <g id="id11">
       <path fill="rgb(0,0,0)" stroke="none" d="M 0,0 L 0,0 Z"/>
      </g>
     </g>
     <g class="com.sun.star.drawing.PolyPolygonShape">
      <g id="id12">
       <path fill="rgb(0,0,0)" stroke="none" d="M 0,0 L 1,0 1,0 0,0 Z"/>
      </g>
     </g>
     <g class="com.sun.star.drawing.PolyPolygonShape">
      <g id="id13"/>
     </g>
     <g class="com.sun.star.drawing.PolyPolygonShape">
      <g id="id14"/>
     </g>
     <g class="Group">
      <g class="com.sun.star.drawing.ClosedBezierShape">
       <g id="id15"/>
      </g>
      <g class="com.sun.star.drawing.PolyPolygonShape">
       <g id="id16">
        <path fill="rgb(0,0,0)" stroke="none" d="M 0,0 L 0,0 Z"/>
       </g>
      </g>
      <g class="com.sun.star.drawing.PolyPolygonShape">
       <g id="id17">
        <path fill="rgb(0,0,0)" stroke="none" d="M 0,0 L 0,0 Z"/>
       </g>
      </g>
      <g class="com.sun.star.drawing.PolyPolygonShape">
       <g id="id18">
        <path fill="rgb(0,0,0)" stroke="none" d="M 0,0 L 0,0 Z M 0,0 L 0,0 Z"/>
       </g>
      </g>
      <g class="com.sun.star.drawing.PolyPolygonShape">
       <g id="id19">
        <path fill="rgb(0,0,0)" stroke="none" d="M 2,0 L 0,0 0,0 0,0 0,0 0,0 0,0 0,0 0,0 2,0 Z"/>
       </g>
      </g>
      <g class="com.sun.star.drawing.PolyPolygonShape">
       <g id="id20">
        <path fill="rgb(0,0,0)" stroke="none" d="M 0,0 L 0,0 Z"/>
       </g>
      </g>
      <g class="com.sun.star.drawing.PolyPolygonShape">
       <g id="id21">
        <path fill="rgb(0,0,0)" stroke="none" d="M 0,0 L 0,0 Z"/>
       </g>
      </g>
      <g class="com.sun.star.drawing.PolyPolygonShape">
       <g id="id22">
        <path fill="rgb(0,0,0)" stroke="none" d="M 0,0 L 0,0 Z"/>
       </g>
      </g>
      <g class="com.sun.star.drawing.PolyPolygonShape">
       <g id="id23">
        <path fill="rgb(0,0,0)" stroke="none" d="M 0,0 L 0,0 Z"/>
       </g>
      </g>
      <g class="com.sun.star.drawing.PolyPolygonShape">
       <g id="id24">
        <path fill="rgb(0,0,0)" stroke="none" d="M 0,0 L 0,0 Z"/>
       </g>
      </g>
      <g class="com.sun.star.drawing.ClosedBezierShape">
       <g id="id25">
        <path fill="rgb(0,0,0)" stroke="none" d="M 1579,21 C 2465,21 3142,695 3142,1579 3142,2463 2465,3140 1579,3140 695,3140 21,2463 21,1579 21,695 695,21 1579,21 Z M 1579,176 C 2378,176 2985,783 2985,1579 2985,2375 2378,2983 1579,2983 786,2983 176,2375 176,1579 176,783 786,176 1579,176 Z M 21,21 L 21,21 Z M 3142,3142 L 3142,3142 Z"/>
       </g>
      </g>
      <g class="com.sun.star.drawing.PolyPolygonShape">
       <g id="id26"/>
      </g>
      <g class="com.sun.star.drawing.PolyPolygonShape">
       <g id="id27"/>
      </g>
      <g class="com.sun.star.drawing.PolyPolygonShape">
       <g id="id28"/>
      </g>
      <g class="com.sun.star.drawing.ClosedBezierShape">
       <g id="id29">
        <path fill="rgb(0,0,0)" stroke="none" d="M 1931,806 C 1803,806 1671,812 1548,850 1460,877 1382,938 1326,1009 1248,1103 1181,1204 1093,1286 1054,1317 1003,1330 955,1342 844,1367 731,1382 622,1416 570,1430 519,1455 477,1491 421,1543 377,1606 337,1673 310,1723 291,1782 293,1841 295,1895 310,1954 350,1996 387,2038 438,2065 492,2086 547,2107 605,2113 664,2117 685,2209 752,2289 840,2327 909,2352 986,2350 1056,2327 1112,2308 1162,2266 1200,2220 1223,2193 1244,2161 1263,2128 1320,2107 1380,2105 1439,2105 1500,2107 1563,2109 1623,2111 1686,2115 1749,2121 1812,2134 1831,2220 1887,2297 1969,2337 2017,2358 2074,2356 2126,2348 2218,2335 2304,2281 2354,2203 2375,2172 2392,2140 2409,2107 2463,2103 2509,2071 2545,2031 2595,1973 2620,1897 2639,1824 2656,1767 2673,1709 2692,1652 2733,1522 2767,1386 2773,1248 2775,1168 2773,1087 2742,1011 2712,936 2652,873 2574,846 2501,821 2423,819 2348,814 2210,806 2069,806 1931,806 Z M 2038,951 C 2201,955 2367,951 2528,978 2581,988 2608,1020 2618,1051 2641,1099 2652,1191 2639,1284 2625,1441 2578,1594 2530,1744 2514,1790 2501,1841 2482,1887 2472,1906 2457,1922 2442,1937 2438,1855 2394,1776 2323,1732 2258,1688 2172,1673 2097,1696 1969,1734 1866,1841 1826,1969 1824,1975 1822,1983 1820,1989 1705,1969 1586,1966 1466,1960 1414,1960 1361,1962 1309,1971 1317,1910 1309,1845 1271,1795 1215,1713 1108,1669 1012,1692 909,1713 817,1778 750,1858 718,1897 691,1941 672,1989 639,1987 605,1987 576,1981 528,1971 480,1954 444,1920 413,1883 410,1824 436,1780 467,1719 505,1663 553,1612 586,1577 628,1550 679,1539 737,1524 798,1516 857,1506 945,1489 1035,1476 1116,1439 1177,1409 1227,1363 1267,1309 1343,1219 1405,1116 1495,1039 1546,997 1611,978 1674,967 1793,948 1917,955 2038,951 Z M 2176,1809 C 2239,1811 2302,1858 2321,1918 2331,1962 2321,2006 2300,2046 2277,2092 2247,2142 2203,2174 2164,2203 2111,2207 2063,2209 2030,2212 1996,2203 1971,2182 1933,2149 1921,2094 1931,2046 1935,2025 1946,2002 1956,1981 1981,1920 2025,1868 2084,1837 2111,1822 2143,1811 2176,1809 Z M 1072,1820 C 1112,1820 1154,1832 1183,1862 1202,1887 1200,1918 1198,1948 1188,2029 1144,2105 1085,2161 1051,2195 1005,2216 959,2220 915,2224 867,2222 831,2195 794,2168 769,2117 779,2071 788,2029 817,1996 840,1962 878,1910 922,1862 982,1839 1012,1826 1041,1820 1072,1820 Z"/>
       </g>
      </g>
      <g class="com.sun.star.drawing.ClosedBezierShape">
       <g id="id30">
        <path fill="rgb(0,0,0)" stroke="none" d="M 2166,1066 C 2122,1066 2075,1081 2046,1112 2013,1146 1994,1192 1973,1236 1946,1296 1923,1359 1902,1424 1893,1454 1885,1487 1897,1518 1910,1548 1939,1567 1971,1579 2034,1600 2105,1600 2172,1598 2218,1596 2268,1596 2314,1588 2346,1579 2371,1558 2385,1531 2411,1493 2425,1451 2444,1410 2467,1349 2484,1284 2488,1219 2490,1183 2478,1148 2450,1125 2425,1102 2392,1089 2358,1083 2295,1068 2230,1066 2166,1066 Z M 2170,1160 C 2245,1162 2321,1167 2392,1196 2409,1208 2415,1231 2406,1252 2396,1324 2369,1393 2337,1458 2329,1477 2321,1493 2304,1506 2285,1521 2260,1516 2237,1518 2180,1521 2122,1518 2065,1516 2034,1514 2000,1510 1973,1495 1964,1487 1971,1474 1973,1466 1985,1418 2004,1372 2023,1326 2044,1275 2067,1225 2096,1181 2105,1169 2119,1162 2134,1162 2147,1160 2157,1162 2170,1160 Z"/>
       </g>
      </g>
      <g class="com.sun.star.drawing.ClosedBezierShape">
       <g id="id31">
        <path fill="rgb(0,0,0)" stroke="none" d="M 1710,1060 C 1649,1060 1586,1068 1536,1100 1479,1133 1439,1186 1398,1232 1345,1293 1295,1353 1257,1420 1243,1448 1234,1479 1245,1508 1259,1548 1297,1575 1337,1586 1391,1603 1450,1600 1509,1600 1571,1603 1636,1603 1699,1590 1733,1579 1764,1563 1785,1533 1810,1498 1825,1454 1844,1412 1873,1334 1902,1255 1907,1171 1907,1142 1896,1112 1873,1094 1850,1073 1817,1066 1785,1064 1762,1060 1735,1060 1710,1060 Z M 1699,1156 C 1739,1158 1781,1154 1817,1173 1827,1179 1829,1192 1825,1202 1821,1244 1802,1284 1789,1326 1770,1374 1754,1420 1726,1464 1716,1483 1697,1502 1674,1506 1632,1519 1588,1515 1546,1517 1490,1517 1431,1519 1375,1508 1360,1506 1343,1502 1331,1496 1322,1487 1322,1477 1328,1468 1337,1454 1347,1441 1356,1427 1406,1357 1465,1295 1527,1232 1553,1207 1582,1181 1615,1167 1643,1158 1672,1158 1699,1156 Z"/>
       </g>
      </g>
     </g>
    </g>
   </g>
  </g>
 </g>
</svg>