<?xml version="1.0" encoding="UTF-8" standalone="no"?>
<svg
   xmlns:ooo="http://xml.openoffice.org/svg/export"
   xmlns:osb="http://www.openswatchbook.org/uri/2009/osb"
   xmlns:dc="http://purl.org/dc/elements/1.1/"
   xmlns:cc="http://creativecommons.org/ns#"
   xmlns:rdf="http://www.w3.org/1999/02/22-rdf-syntax-ns#"
   xmlns:svg="http://www.w3.org/2000/svg"
   xmlns="http://www.w3.org/2000/svg"
   xmlns:sodipodi="http://sodipodi.sourceforge.net/DTD/sodipodi-0.dtd"
   xmlns:inkscape="http://www.inkscape.org/namespaces/inkscape"
   version="1.2"
   width="31.75mm"
   height="31.75mm"
   viewBox="0 0 3175 3175"
   preserveAspectRatio="xMidYMid"
   fill-rule="evenodd"
   clip-path="url(#presentation_clip_path)"
   stroke-width="28.222"
   stroke-linejoin="round"
   xml:space="preserve"
   id="svg2"
   inkscape:version="0.48.2 r9819"
   sodipodi:docname="pot.svg"><metadata
   id="metadata88"><rdf:RDF><cc:Work
       rdf:about=""><dc:format>image/svg+xml</dc:format><dc:type
         rdf:resource="http://purl.org/dc/dcmitype/StillImage" /><dc:title /></cc:Work></rdf:RDF></metadata><sodipodi:namedview
   pagecolor="#ffffff"
   bordercolor="#646464"
   borderopacity="1"
   objecttolerance="10"
   gridtolerance="10"
   guidetolerance="10"
   inkscape:pageopacity="0"
   inkscape:pageshadow="2"
   inkscape:window-width="1144"
   inkscape:window-height="789"
   id="namedview86"
   showgrid="false"
   inkscape:zoom="5.096065"
   inkscape:cx="56.25"
   inkscape:cy="56.25"
   inkscape:window-x="161"
   inkscape:window-y="7"
   inkscape:window-maximized="0"
   inkscape:current-layer="svg2"
   showborder="true"
   borderlayer="true"
   inkscape:showpageshadow="true" />
 <defs
   class="ClipPathGroup"
   id="defs4"><linearGradient
   id="linearGradient3829"
   osb:paint="solid"><stop
     style="stop-color:#000000;stop-opacity:1;"
     offset="0"
     id="stop3831" /></linearGradient>
  <clipPath
   id="presentation_clip_path"
   clipPathUnits="userSpaceOnUse">
   <rect
   x="0"
   y="0"
   width="3175"
   height="3175"
   id="rect7" />
  </clipPath>
 
  
 
   
  
    
   
     
    
      
      
      
      
     <filter
   inkscape:collect="always"
   id="filter3870"
   x="-0.11699346"
   width="1.2339869"
   y="-0.15142273"
   height="1.3028455"><feGaussianBlur
     inkscape:collect="always"
     stdDeviation="26.236967"
     id="feGaussianBlur3872" /></filter><pattern
   id="pattern5245"
   patternTransform="matrix(0.8,0,0,0.8,104.78995,232.69564)"
   height="150.26305"
   width="156.84161"
   patternUnits="userSpaceOnUse"><path
     style="opacity:0;fill:#000000;fill-opacity:1;fill-rule:nonzero;stroke:none"
     d="M 50.440237,149.8231 C 34.737767,147.46477 26.036667,143.40317 16.794417,134.11753 9.2909265,126.57882 4.5883465,118.7978 2.0908165,109.78852 c -3.71594,-13.404369 -2.66085,-21.553989 4.63508,-35.801879 5.9425805,-11.60502 10.3104505,-18.22706 20.1815205,-30.59684 19.17366,-24.02718 35.91206,-35.3472697 61.14289,-41.3505997 16.688853,-3.97089 32.802993,-2.13710002 47.929543,5.45439 9.92112,4.9790597 15.64141,11.5142997 18.94991,21.6496097 4.60403,14.10404 0.59758,41.2888 -8.8504,60.05228 -11.26731,22.376649 -32.17511,45.288239 -48.784343,53.459809 -10.49638,5.16411 -35.11748,8.93063 -46.85478,7.16781 z"
     id="path5237"
     inkscape:connector-curvature="0" /></pattern><linearGradient
   osb:paint="solid"
   id="linearGradient5229"><stop
     id="stop5231"
     offset="0"
     style="stop-color:#000000;stop-opacity:1;" /></linearGradient>
       
      
        
        
        
        
        
       </defs>
 <defs
   class="TextShapeIndex"
   id="defs9">
  <g
   ooo:slide="id1"
   ooo:id-list="id3 id4 id5 id6"
   id="g11" />
 </defs>
 <defs
   class="EmbeddedBulletChars"
   id="defs13">
  <g
   id="bullet-char-template(57356)"
   transform="scale(0.00048828125,-0.00048828125)">
   <path
   d="M 580,1141 L 1163,571 580,0 -4,571 580,1141 Z"
   id="path16" />
  </g>
  <g
   id="bullet-char-template(57354)"
   transform="scale(0.00048828125,-0.00048828125)">
   <path
   d="M 8,1128 L 1137,1128 1137,0 8,0 8,1128 Z"
   id="path19" />
  </g>
  <g
   id="bullet-char-template(10146)"
   transform="scale(0.00048828125,-0.00048828125)">
   <path
   d="M 174,0 L 602,739 174,1481 1456,739 174,0 Z M 1358,739 L 309,1346 659,739 1358,739 Z"
   id="path22" />
  </g>
  <g
   id="bullet-char-template(10132)"
   transform="scale(0.00048828125,-0.00048828125)">
   <path
   d="M 2015,739 L 1276,0 717,0 1260,543 174,543 174,936 1260,936 717,1481 1274,1481 2015,739 Z"
   id="path25" />
  </g>
  <g
   id="bullet-char-template(10007)"
   transform="scale(0.00048828125,-0.00048828125)">
   <path
   d="M 0,-2 C -7,14 -16,27 -25,37 L 356,567 C 262,823 215,952 215,954 215,979 228,992 255,992 264,992 276,990 289,987 310,991 331,999 354,1012 L 381,999 492,748 772,1049 836,1024 860,1049 C 881,1039 901,1025 922,1006 886,937 835,863 770,784 769,783 710,716 594,584 L 774,223 C 774,196 753,168 711,139 L 727,119 C 717,90 699,76 672,76 641,76 570,178 457,381 L 164,-76 C 142,-110 111,-127 72,-127 30,-127 9,-110 8,-76 1,-67 -2,-52 -2,-32 -2,-23 -1,-13 0,-2 Z"
   id="path28" />
  </g>
  <g
   id="bullet-char-template(10004)"
   transform="scale(0.00048828125,-0.00048828125)">
   <path
   d="M 285,-33 C 182,-33 111,30 74,156 52,228 41,333 41,471 41,549 55,616 82,672 116,743 169,778 240,778 293,778 328,747 346,684 L 369,508 C 377,444 397,411 428,410 L 1163,1116 C 1174,1127 1196,1133 1229,1133 1271,1133 1292,1118 1292,1087 L 1292,965 C 1292,929 1282,901 1262,881 L 442,47 C 390,-6 338,-33 285,-33 Z"
   id="path31" />
  </g>
  <g
   id="bullet-char-template(9679)"
   transform="scale(0.00048828125,-0.00048828125)">
   <path
   d="M 813,0 C 632,0 489,54 383,161 276,268 223,411 223,592 223,773 276,916 383,1023 489,1130 632,1184 813,1184 992,1184 1136,1130 1245,1023 1353,916 1407,772 1407,592 1407,412 1353,268 1245,161 1136,54 992,0 813,0 Z"
   id="path34" />
  </g>
  <g
   id="bullet-char-template(8226)"
   transform="scale(0.00048828125,-0.00048828125)">
   <path
   d="M 346,457 C 273,457 209,483 155,535 101,586 74,649 74,723 74,796 101,859 155,911 209,963 273,989 346,989 419,989 480,963 531,910 582,859 608,796 608,723 608,648 583,586 532,535 482,483 420,457 346,457 Z"
   id="path37" />
  </g>
  <g
   id="bullet-char-template(8211)"
   transform="scale(0.00048828125,-0.00048828125)">
   <path
   d="M -4,459 L 1135,459 1135,606 -4,606 -4,459 Z"
   id="path40" />
  </g>
 </defs>
 <defs
   class="TextEmbeddedBitmaps"
   id="defs42" />
 
 
<g
   id="g3763"><g
     id="g44">
  <g
   class="Master_Slide"
   id="id2">
   <g
   class="Background"
   id="bg-id2" />
   <g
   class="BackgroundObjects"
   id="bo-id2" />
  </g>
 </g><path
     d="m 1586.5,20.5 c 888,0 1567,678 1567,1566 0,888 -679,1567 -1567,1567 -888,0 -1566,-679 -1566,-1567 0,-888 678,-1566 1566,-1566 z m 0,156 c 799,0 1410,611 1410,1410 0,799 -611,1410 -1410,1410 -799,0 -1410,-611 -1410,-1410 0,-799 611,-1410 1410,-1410 z m -1566,-156 0,0 z m 3134,3134 0,0 z"
     id="path76"
     inkscape:connector-curvature="0"
     style="fill:#000000;stroke:none" /><path
     d="m 20.5,20.5 0,0 z"
     id="path82"
     inkscape:connector-curvature="0"
     style="fill:none;stroke:#000000" /><path
     d="m 3154.5,3154.5 0,0 z"
     id="path84"
     inkscape:connector-curvature="0"
     style="fill:none;stroke:#000000" /><path
     inkscape:connector-curvature="0"
     d="M 1036.1643,511.83828 C 893.92428,551.80094 785.29695,594.19072 765.88007,701.77383 744.54407,819.96849 890.36828,862.61225 1008.4501,852.84737 842.72917,805.49049 784.42207,639.57205 1036.1643,511.83828 z m 77.6111,149.71888 c -44.4218,0 -90.5651,3.16089 -134.45068,6.91445 224.93108,57.65799 396.49398,138.48643 -148.30777,526.76769 133.858,-46.1998 413.96355,-199.67215 476.84265,-365.95748 51.816,-137.0471 -60.706,-167.21666 -194.0842,-167.72466 l 0,0 z M 925.27917,998.38936 C 690.27274,1064.3729 511.03341,1134.0253 478.94474,1311.656 c -35.27777,195.2413 205.486,265.6275 400.58621,249.4844 -273.78376,-78.1755 -370.10621,-351.7617 45.74822,-562.75104 l 0,0 z m 672.25333,30.47994 c -21.7593,-2.0037 -39.5675,12.8976 -41.5713,34.6851 l -8.3256,85.9367 c -2.0038,21.7593 12.8976,42.3333 34.6569,44.3653 l 320.1811,29.0971 c 21.7876,2.0038 39.5676,-15.6633 41.5996,-37.4508 l 8.3255,-85.9085 c 1.9756,-21.7593 -12.8693,-39.5958 -34.6569,-41.5995 l -320.2093,-29.1254 z m -169.0794,214.884 c -262.8617,2.4554 -486.26882,49.022 -539.21371,153.8676 -9.31333,20.7433 1.69334,38.6362 22.18267,40.1884 l 1524.79014,139.9822 c 23.8196,3.6124 32.6532,-10.8938 27.686,-33.274 -37.1686,-146.7555 -397.5946,-253.3508 -765.1326,-288.3182 -91.6093,-8.6924 -182.6824,-13.2644 -270.3125,-12.446 z m -66.548,44.3371 c -92.4842,25.3718 -143.9615,59.7182 -170.4904,103.9707 -7.0273,12.3895 -16.5382,20.8844 -33.274,19.3887 l -141.3651,-12.446 c -19.52977,-0.4798 -31.07265,-9.398 -22.18266,-20.7998 40.24486,-46.3127 183.69846,-75.4662 367.31216,-90.1136 l 0,0 z m -500.37993,400.5862 c -16.002,0.028 -28.05288,8.128 -29.12533,29.1253 v 36.0116 l -198.20466,-54.0738 c -3.72533,-1.27 -8.89,-1.8344 -12.47422,-1.3547 -10.75266,1.524 -18.00577,11.1478 -18.034,24.9767 v 106.7082 c 0.508,19.5298 8.128,29.4358 23.53734,34.6851 l 205.14732,55.4285 v 535.0368 c 0,115.2878 92.68177,207.9414 207.94128,207.9414 h 1223.9696 c 115.2313,0 207.9131,-92.6818 207.9131,-207.9414 v -535.0368 l 200.9986,-55.4285 c 15.4376,-5.2493 25.7951,-15.1271 26.3314,-34.6851 v -106.7082 c -0.028,-13.8289 -10.0189,-23.4527 -20.7998,-24.9767 -3.556,-0.5644 -7.3096,0 -11.0913,1.3547 l -195.4389,54.0738 v -33.274 c 1.1289,-20.1789 -14.9578,-31.1574 -36.0116,-31.8911 H 861.52517 l 0,0.028 z m 148.30773,163.576 342.392,1.3546 c 24.6098,0 32.766,11.176 31.8629,33.3023 v 561.3964 c 0.1976,20.574 -7.4789,32.3426 -29.0971,31.8629 h -241.2153 c -74.3938,0 -133.03957,-60.0569 -133.03957,-134.4507 v -464.3684 c -0.31044,-18.542 11.76867,-29.5487 29.09707,-29.0971 l 0,0 z"
     id="path7095" /></g></svg>